<?xml version="1.0" encoding="UTF-8"?>
<svg id="Layer_1" data-name="Layer 1" xmlns="http://www.w3.org/2000/svg" viewBox="0 0 236.98 316.18">
  <defs>
    <style>
      .cls-1 {
        fill: #fff;
      }
    </style>
  </defs>
  <path class="cls-1" d="M236.66,9.54c-.25-3.23-.68-6.41-1.26-9.54h-83.1v.02c-.46-.02-.92-.02-1.38-.02-30.29,0-57.1,14.87-73.54,37.71-1.72,2.39-3.32,4.86-4.8,7.41-3.51,6.03-6.33,12.49-8.38,19.3-.46,1.54-.89,3.11-1.27,4.69-1.67,6.87-2.56,14.05-2.56,21.44v89.85c-9.02-17.65-27.38-29.73-48.56-29.73-4.01,0-7.92.43-11.68,1.26-.09,1.38-.14,2.78-.14,4.19,0,12.06,3.3,23.34,9.04,33,3.82,6.44,8.73,12.17,14.48,16.92,9.06,7.48,20.18,12.55,32.39,14.21,1.47.2,3.55.34,5.06.43l.16,18.13h0c.2,1.57,0,3.14.06,4.75.03.71.04,1.44.04,2.16,0,20.69-10.35,38.8-26.89,48.71-2.67,1.6-5.48,2.99-8.4,4.13-3.07,1.2-5.37,3.95-5.59,7.24-.02.28-.03.55-.03.83,0,1.27.19,2.49.54,3.63,1.13,3.66,4.71,6.07,8.54,5.92,4.88-.19,9.43-1.31,13.73-3.07,16.47-6.73,28.84-21.64,34.5-39.37.31-.96,1.19-3.45,1.37-4.44.23-1.24.4-1.77.58-2.59,1.56-6.98,3.84-13.63,7.36-19.58,1.13-1.91,2.35-3.75,3.68-5.51l.05-.06c2.72-3.11,6.36-6.04,9.93-8.25,6.77-4.19,13.77-7.92,19.81-12.99,14.91-12.52,26.1-29.33,31.7-48.52,1.85-6.34,3.09-12.94,3.64-19.74-4.16-.91-8.47-1.39-12.9-1.39-3.64,0-7.2.32-10.66.93-.95.17-1.9.36-2.83.58-20.82,4.74-37.54,20.21-44.04,40.3v-15.05c.02-1.96.02-3.97.02-5.99s0-3.94-.02-5.99c-.03-3.62,1.03-7.1,2-10.48,2.49-8.67,6.88-16.53,12.7-23.1,4.87-5.49,10.74-10.08,17.33-13.48,2.39-1.24,4.88-2.32,7.45-3.23,4.65-1.65,9.58-2.73,14.68-3.17,1.72-.15,6.73-.27,8.49-.27.55,0-.55-.01,0,0,1.22.03-1.21.1,0,0,.28-.02-.28.03,0,0,10.11-.89,22.63-3.48,31.57-7.32,15.11-6.46,28.2-16.75,38.04-29.65,5.88-7.69,10.6-16.3,13.92-25.58,3.56-9.96,5.5-20.7,5.5-31.88,0-2.61-.11-5.19-.32-7.75ZM87.56,217.11c7.1-17.01,20.39-35.24,39.28-42.75.75-.3,1.55-.49,2.33-.71-6.04,24.02-24.82,40.16-43.87,55.23-.08.05-.15.09-.23.12v.07s-.02-.04-.02-.06t.02-.01c.05-1.06.13-2.12.23-3.16.3-3.04,1.11-5.99,2.26-8.73ZM212.36,24.05c-.33,9.29-2.52,18.1-6.2,26.08-10.84,23.53-34.43,39.74-62.03,39.74h-.43c-1.1-.01-2.13-.03-3.22-.09-.95-.05-2.05-.1-3.05-.09h0c-8.9,0-17.5,1.71-25.29,4.83-4.55,1.81-8.87,4.12-12.88,6.84-.1.07-.21.14-.31.21-3.78,2.6-7.29,5.57-10.47,8.87-1.11,1.14-2.17,2.32-3.18,3.54v-20.97c-.05-1.02,0-1.99,0-3.02,0-5.67.7-11.17,2.03-16.43.8-3.2,1.84-6.3,3.1-9.31,1.74-4.18,3.89-8.14,6.4-11.84,12.05-17.76,32.4-29.42,55.47-29.42h60.09c0,.35-.01.71-.03,1.06Z"/>
</svg>